<svg xmlns="http://www.w3.org/2000/svg" viewBox="0 0 100 100" fill="none">
  <defs>
    <linearGradient id="lA" x1="20" y1="10" x2="80" y2="90" gradientUnits="userSpaceOnUse">
      <stop offset="0" stop-color="#2EE8FF"/>
      <stop offset="1" stop-color="#1560FF"/>
    </linearGradient>
    <radialGradient id="lB" cx="50%" cy="50%" r="50%">
      <stop offset="0%" stop-color="#0A1E35"/>
      <stop offset="100%" stop-color="#020C1A"/>
    </radialGradient>
    <filter id="glow">
      <feGaussianBlur stdDeviation="2.5" result="blur"/>
      <feMerge><feMergeNode in="blur"/><feMergeNode in="SourceGraphic"/></feMerge>
    </filter>
  </defs>

  <!-- outer hex -->
  <polygon points="50,4 91,27 91,73 50,96 9,73 9,27" fill="url(#lB)" stroke="url(#lA)" stroke-width="2.2"/>

  <!-- inner hex ring -->
  <polygon points="50,16 80,33 80,67 50,84 20,67 20,33" fill="none" stroke="#22d4ff" stroke-width="1.2" stroke-opacity="0.55"/>

  <!-- radar circles -->
  <circle cx="50" cy="50" r="24" stroke="#22d4ff" stroke-width="1" stroke-dasharray="6 5" stroke-opacity="0.4"/>
  <circle cx="50" cy="50" r="15" stroke="#22d4ff" stroke-width="1" stroke-opacity="0.65"/>

  <!-- eye shape -->
  <path d="M28 50 Q50 30 72 50 Q50 70 28 50Z" stroke="#2EE8FF" stroke-width="2" fill="#071624" filter="url(#glow)"/>

  <!-- iris -->
  <circle cx="50" cy="50" r="10" fill="#0d2640" stroke="#2EE8FF" stroke-width="1.8"/>

  <!-- pupil -->
  <circle cx="50" cy="50" r="5" fill="#2EE8FF"/>
  <circle cx="50" cy="50" r="2.2" fill="#020C1A"/>

  <!-- threat dots -->
  <circle cx="68" cy="43" r="2.8" fill="#FFB347"/>
  <circle cx="36" cy="58" r="2.8" fill="#FF4D6D"/>

  <!-- cross-hairs -->
  <line x1="50" y1="18" x2="50" y2="12" stroke="#2EE8FF" stroke-width="1.4" stroke-linecap="round" stroke-opacity="0.7"/>
  <line x1="50" y1="88" x2="50" y2="82" stroke="#2EE8FF" stroke-width="1.4" stroke-linecap="round" stroke-opacity="0.7"/>
  <line x1="12" y1="50" x2="18" y2="50" stroke="#2EE8FF" stroke-width="1.4" stroke-linecap="round" stroke-opacity="0.7"/>
  <line x1="88" y1="50" x2="82" y2="50" stroke="#2EE8FF" stroke-width="1.4" stroke-linecap="round" stroke-opacity="0.7"/>
</svg>
